<?xml version="1.0" encoding="UTF-8" standalone="no"?>
<!-- Created with Inkscape (http://www.inkscape.org/) -->

<svg
   xmlns:dc="http://purl.org/dc/elements/1.1/"
   xmlns:cc="http://creativecommons.org/ns#"
   xmlns:rdf="http://www.w3.org/1999/02/22-rdf-syntax-ns#"
   xmlns:svg="http://www.w3.org/2000/svg"
   xmlns="http://www.w3.org/2000/svg"
   xmlns:sodipodi="http://sodipodi.sourceforge.net/DTD/sodipodi-0.dtd"
   xmlns:inkscape="http://www.inkscape.org/namespaces/inkscape"
   width="79.941223mm"
   height="51.83646mm"
   viewBox="0 0 79.941223 51.83646"
   version="1.1"
   id="svg8"
   inkscape:version="0.92.2 (5c3e80d, 2017-08-06)"
   sodipodi:docname="direwolf-logo2.svg">
  <defs
     id="defs2">
    <inkscape:path-effect
       effect="bspline"
       id="path-effect3709"
       is_visible="true"
       weight="33.333333"
       steps="2"
       helper_size="0"
       apply_no_weight="true"
       apply_with_weight="true"
       only_selected="false" />
  </defs>
  <sodipodi:namedview
     id="base"
     pagecolor="#ffffff"
     bordercolor="#666666"
     borderopacity="1.0"
     inkscape:pageopacity="0.0"
     inkscape:pageshadow="2"
     inkscape:zoom="1"
     inkscape:cx="-189.25827"
     inkscape:cy="81.389194"
     inkscape:document-units="mm"
     inkscape:current-layer="layer1"
     showgrid="false"
     inkscape:window-width="1775"
     inkscape:window-height="1092"
     inkscape:window-x="131"
     inkscape:window-y="74"
     inkscape:window-maximized="0" />
  <metadata
     id="metadata5">
    <rdf:RDF>
      <cc:Work
         rdf:about="">
        <dc:format>image/svg+xml</dc:format>
        <dc:type
           rdf:resource="http://purl.org/dc/dcmitype/StillImage" />
        <dc:title></dc:title>
      </cc:Work>
    </rdf:RDF>
  </metadata>
  <g
     inkscape:label="Layer 1"
     inkscape:groupmode="layer"
     id="layer1"
     transform="translate(-81.42538,-150.2811)">
    <g
       id="g4536">
      <g
         id="g3721">
        <path
           style="fill:none;stroke:#000000;stroke-width:0.26458332px;stroke-linecap:butt;stroke-linejoin:miter;stroke-opacity:1"
           d="m 81.491665,173.175 12.435417,-5.29167 -2.38125,-1.5875 15.610418,-0.79375 -4.49792,-2.11666 16.40417,-2.38125 -2.91042,-10.31875 10.58334,9.525 12.96458,2.38125 6.08541,8.73125 15.34584,3.96875 -3.96875,4.7625 -6.61458,-1.05834 -2.91042,1.05834 -0.79375,-1.5875 -1.5875,1.85208 -1.5875,-1.32292 -2.38125,-0.52916 -2.11667,5.02708 3.70417,0.79375 2.11667,-2.11667 -1.05834,2.91042 3.70417,-2.11667 -0.79375,2.38125 5.55625,1.05834 -2.38125,4.23333 -10.58333,-2.64583"
           id="path3705"
           inkscape:connector-curvature="0"
           sodipodi:nodetypes="ccccccccccccccccccccccccccc" />
        <path
           style="fill:none;stroke:#000000;stroke-width:0.26458332px;stroke-linecap:butt;stroke-linejoin:miter;stroke-opacity:1"
           d="m 139.43542,187.99167 c -10.05389,0.26458 -20.10785,0.52915 -27.86912,2.86624 -7.76126,2.33709 -13.229208,6.74672 -18.697551,11.15667"
           id="path3707"
           inkscape:connector-curvature="0"
           inkscape:path-effect="#path-effect3709"
           inkscape:original-d="m 139.43542,187.99167 c -10.0539,0.26432 -20.10786,0.5289 -30.1625,0.79375 -5.46791,4.40955 -10.935852,8.81918 -16.404171,13.22916"
           sodipodi:nodetypes="ccc" />
        <path
           style="fill:none;stroke:#000000;stroke-width:0.26458332px;stroke-linecap:butt;stroke-linejoin:miter;stroke-opacity:1"
           d="m 81.491663,173.175 5.027086,2.91042 -2.910417,9.525 5.291667,-0.52917 -0.79375,11.1125 4.7625,5.82083"
           id="path3711"
           inkscape:connector-curvature="0" />
        <path
           style="fill:#484537"
           d="m 342.98049,752.16782 c -4.09602,-5.03353 -7.80255,-9.75026 -8.23673,-10.48163 -0.43417,-0.73138 -0.0905,-10.63188 0.76369,-22.00111 0.85421,-11.36924 1.40744,-20.81701 1.22941,-20.99503 -0.17802,-0.17803 -4.29718,0.12781 -9.15368,0.67964 -4.8565,0.55183 -9.07048,0.76286 -9.36439,0.46895 -0.29391,-0.29392 1.82256,-8.22744 4.70327,-17.63006 2.88072,-9.40262 5.09669,-17.21712 4.92439,-17.36555 -0.1723,-0.14843 -4.2152,-2.48651 -8.98421,-5.19574 l -8.67094,-4.92587 22.92094,-9.80576 c 12.60651,-5.39317 22.92094,-10.11153 22.92094,-10.48526 0,-0.37372 -1.38116,-1.49537 -3.06924,-2.49254 -1.68808,-0.99717 -2.89244,-1.98983 -2.67637,-2.2059 0.21608,-0.21608 9.58473,-0.85137 20.81923,-1.41177 26.9941,-1.34652 34.92638,-2.01329 34.92638,-2.93581 0,-0.42056 -2.925,-2.0078 -6.5,-3.52719 -3.575,-1.5194 -6.5,-3.0746 -6.5,-3.456 0,-0.38141 12.85974,-2.54052 28.5772,-4.79802 15.71746,-2.25751 28.79089,-4.31824 29.05207,-4.57942 0.26117,-0.26118 -1.772,-8.278 -4.51816,-17.81518 -2.74616,-9.53717 -4.87339,-17.45994 -4.72717,-17.60616 0.14622,-0.14622 8.50644,7.13627 18.57825,16.18331 16.80609,15.09613 18.73295,16.53233 23.4251,17.46017 2.81199,0.55605 13.88328,2.63593 24.60287,4.62197 10.71959,1.98603 19.71959,3.96171 20,4.3904 0.28041,0.42868 5.41068,7.81759 11.4006,16.41978 9.62174,13.81792 11.31131,15.75133 14.5,16.5927 1.98508,0.52379 14.18424,3.67752 27.10924,7.00829 12.925,3.33077 24.08407,6.27166 24.79792,6.53531 0.84709,0.31285 -1.03192,3.26269 -5.40951,8.49235 -3.6891,4.40715 -6.97316,8.01289 -7.29793,8.01276 -0.32476,-1.3e-4 -5.93306,-0.87185 -12.46287,-1.93716 -11.74383,-1.91595 -11.92562,-1.91595 -16.78702,2.4e-4 -2.70305,1.06544 -5.06838,1.93716 -5.25629,1.93716 -0.18791,0 -0.90085,-1.35 -1.5843,-3 -1.54848,-3.73836 -2.07799,-3.73836 -4.84188,0 -2.58527,3.49676 -3.76997,3.69584 -6.59367,1.10797 -1.62839,-1.49239 -11.53121,-4.56907 -12.19025,-3.78735 -0.0832,0.0987 -2.03809,4.63015 -4.34426,10.06997 -2.86851,6.7663 -3.83817,10.10989 -3.06968,10.58485 0.61783,0.38184 4.08939,1.24078 7.71457,1.90874 6.32821,1.16602 6.69209,1.12273 9.11834,-1.08485 2.12098,-1.92983 2.42032,-2.00318 1.86269,-0.45643 -2.50548,6.94974 -2.39649,7.02837 4.30115,3.10299 3.40601,-1.99621 6.39664,-3.42557 6.64585,-3.17637 0.2492,0.24921 -0.0221,1.70292 -0.60286,3.23048 -0.58078,1.52756 -0.89879,2.93455 -0.70669,3.12664 0.1921,0.1921 4.50078,1.20079 9.57486,2.24153 5.07407,1.04074 9.4483,2.11496 9.7205,2.38716 0.36624,0.36624 -5.36035,11.26413 -7.11255,13.53543 -0.12337,0.15992 -9.18661,-1.95803 -20.14052,-4.70655 l -19.91621,-4.99732 -23.9597,0.95544 c -72.95593,2.90925 -98.93795,10.82832 -139.71296,42.58321 -5.91429,4.60595 -11.113,8.37446 -11.55268,8.37446 -0.43969,0 -4.15072,-4.11834 -8.24674,-9.15187 z"
           id="path3715"
           inkscape:connector-curvature="0"
           transform="scale(0.26458333)" />
      </g>
      <ellipse
         ry="1.190625"
         rx="2.3812499"
         cy="169.07396"
         cx="134.9375"
         id="path4528"
         style="fill:#ee0000;fill-opacity:1;stroke-width:0.26458332" />
    </g>
    <g
       aria-label="Direwolf"
       style="font-style:normal;font-variant:normal;font-weight:normal;font-stretch:normal;font-size:10.58333302px;line-height:1.25;font-family:'Old English Text MT';-inkscape-font-specification:'Old English Text MT';letter-spacing:0px;word-spacing:0px;fill:#ff0000;fill-opacity:1;stroke:#000000;stroke-width:0.26499999;stroke-miterlimit:4;stroke-dasharray:none;stroke-opacity:1"
       id="text822">
      <path
         d="m 112.30825,191.79778 h 0.24288 q 0.0827,0.25838 0.27389,0.3669 0.24804,0.14469 0.80615,0.14469 0.35657,0 2.26343,-0.0723 1.15238,-0.0465 1.4366,-0.0465 0.85783,0 1.45728,0.29455 0.60461,0.29456 0.98185,0.90434 0.37724,0.60978 0.50126,1.67948 0.0879,0.74931 0.14986,3.30213 -1.00769,0.63562 -1.55029,1.10071 -1.64331,-0.45992 -2.89905,-0.45992 -0.85266,0 -1.5813,0.2067 -0.72863,0.20154 -1.54512,0.65112 l -0.14986,-0.19637 q 1.05936,-0.54777 1.86035,-1.12138 0.80098,-0.5736 1.0542,-1.02319 0.25838,-0.45475 0.25838,-1.15238 0,-0.25322 -0.0103,-0.74931 -0.0103,-0.34623 -0.0103,-0.7183 0,-0.65629 0.0724,-0.96635 0.0775,-0.31006 0.32039,-0.71314 h -0.13436 q -0.63045,0.36174 -0.84233,0.66146 -0.2067,0.29456 -0.2067,0.75448 l 0.0413,1.83451 q 0,0.73381 -0.43925,1.31775 -0.43925,0.57878 -2.1084,1.67432 l -0.14986,-0.20154 q 0.84233,-0.58911 1.11104,-0.96635 0.26872,-0.37724 0.26872,-0.79065 0,-0.35657 -0.22738,-0.60462 -0.22737,-0.25321 -0.50126,-0.25321 -0.13952,0 -0.25838,0.0775 -0.11885,0.0775 -0.32039,0.3204 l -0.16537,-0.16537 q 0.1757,-0.44441 0.46509,-0.65112 0.29456,-0.2067 0.7028,-0.2067 0.11886,0 0.25838,0.0258 0.1447,0.0258 0.31006,0.0775 -0.0103,-0.29973 -0.0103,-0.52193 0,-0.81132 0.32556,-1.31775 0.33073,-0.5116 1.2609,-1.06454 -0.85266,0.0879 -1.47278,0.0879 -0.65629,0 -1.12654,-0.18603 -0.3514,-0.1447 -0.51677,-0.45992 -0.16536,-0.3204 -0.19637,-0.87333 z m 4.18579,1.43143 q -0.2222,0.37724 -0.29972,0.65629 -0.10335,0.38241 -0.10335,0.71314 l 0.0413,2.03605 q 0,0.39274 -0.19637,0.80098 -0.14986,0.3049 -0.56327,0.74414 0.75447,-0.12402 1.15238,-0.11885 l 0.29456,0.005 v -4.83692 z m 0.58912,1.98438 q 0.31522,0.22221 0.54777,0.30489 0.23771,0.0827 0.51159,0.0827 0.27389,0 0.5116,-0.0827 0.23771,-0.0879 0.5581,-0.30489 -0.0982,-1.16272 -0.59944,-1.57097 -0.50126,-0.41341 -1.52962,-0.41341 z m 0,1.70532 q 0.35139,-0.20154 0.59944,-0.27389 0.24805,-0.0775 0.5426,-0.0775 0.28422,0 0.5271,0.0724 0.24288,0.0672 0.58395,0.25838 l -0.0879,-1.40043 q -0.33073,0.20154 -0.57361,0.27905 -0.23771,0.0724 -0.52193,0.0724 -0.27389,0 -0.54261,-0.0879 -0.26871,-0.0879 -0.52709,-0.26355 z m 0,1.16272 q 0.63045,0.0517 1.02319,0.12919 0.39791,0.0724 1.24023,0.31006 0.0103,-0.78031 0.0103,-0.80615 0,-0.062 -0.0103,-0.4961 -0.33073,-0.22737 -0.58394,-0.31522 -0.24805,-0.0879 -0.5426,-0.0879 -0.29973,0 -0.55811,0.0879 -0.25321,0.0879 -0.57877,0.31522 z"
         style="font-style:normal;font-variant:normal;font-weight:normal;font-stretch:normal;font-family:'Old English Text MT';-inkscape-font-specification:'Old English Text MT';fill:#ff0000;fill-opacity:1;stroke:#000000;stroke-width:0.26499999;stroke-miterlimit:4;stroke-dasharray:none;stroke-opacity:1"
         id="path825" />
      <path
         d="m 122.7779,192.19568 h 0.65629 l -0.71314,1.11621 h -0.2067 z m -0.39274,1.76734 0.91984,0.75964 -0.40825,0.39791 v 2.8112 q 0,0.44442 0.0827,0.57877 0.0827,0.13436 0.17053,0.13436 0.062,0 0.11369,-0.0258 0.0723,-0.0362 0.29972,-0.2067 l 0.12402,0.1602 -1.17305,0.89917 q -0.41341,-0.29456 -0.53227,-0.55294 -0.11885,-0.26355 -0.11885,-0.91468 v -2.88354 l -0.38758,-0.39791 z"
         style="font-style:normal;font-variant:normal;font-weight:normal;font-stretch:normal;font-family:'Old English Text MT';-inkscape-font-specification:'Old English Text MT';fill:#ff0000;fill-opacity:1;stroke:#000000;stroke-width:0.26499999;stroke-miterlimit:4;stroke-dasharray:none;stroke-opacity:1"
         id="path827" />
      <path
         d="m 127.25824,193.96302 0.78032,0.93534 -0.78032,0.69247 -0.65112,-0.82166 -0.51159,0.46509 v 3.01273 l 0.58911,0.42375 0.53226,-0.42375 0.11886,0.16537 -1.32292,1.05937 q -0.42374,-0.37724 -0.71313,-0.54261 -0.28422,-0.16536 -0.62529,-0.25838 v -0.11369 q 0.22738,-0.16019 0.29456,-0.32039 0.0724,-0.16537 0.0724,-0.62529 v -2.10839 q 0,-0.39791 -0.093,-0.5271 -0.0879,-0.13436 -0.19637,-0.13436 -0.11886,0 -0.32556,0.2067 l -0.12403,-0.14986 1.09038,-0.93534 q 0.43925,0.33589 0.59944,0.58394 0.10336,0.15503 0.10336,0.42892 z"
         style="font-style:normal;font-variant:normal;font-weight:normal;font-stretch:normal;font-family:'Old English Text MT';-inkscape-font-specification:'Old English Text MT';fill:#ff0000;fill-opacity:1;stroke:#000000;stroke-width:0.26499999;stroke-miterlimit:4;stroke-dasharray:none;stroke-opacity:1"
         id="path829" />
      <path
         d="m 130.82392,193.96302 1.45727,1.70015 -2.3151,1.62264 v 0.94051 l 1.19889,0.47543 0.81132,-0.55294 0.11369,0.15503 -1.67432,1.16789 q -0.51159,-0.27389 -0.84232,-0.39275 -0.33073,-0.11885 -0.94051,-0.24804 v -0.12919 q 0.1757,-0.10336 0.23254,-0.25322 0.062,-0.15503 0.062,-0.66146 v -2.95589 q 0.48576,-0.1757 0.80615,-0.32039 0.23255,-0.10852 1.09038,-0.54777 z m -0.78548,0.59428 -0.0724,0.0362 v 2.34094 l 1.35909,-0.95084 z"
         style="font-style:normal;font-variant:normal;font-weight:normal;font-stretch:normal;font-family:'Old English Text MT';-inkscape-font-specification:'Old English Text MT';fill:#ff0000;fill-opacity:1;stroke:#000000;stroke-width:0.26499999;stroke-miterlimit:4;stroke-dasharray:none;stroke-opacity:1"
         id="path831" />
      <path
         d="m 136.7512,195.20842 1.53479,-1.2454 q 0.4806,0.34623 0.62529,0.61495 0.20154,0.36173 0.20154,0.84232 v 3.13159 q -0.5426,0.17054 -0.91468,0.37724 -0.37207,0.20671 -0.75447,0.54261 -0.87333,-0.55294 -1.45728,-0.55294 -0.54777,0 -1.09554,0.55294 -0.51159,-0.42375 -0.98185,-0.60979 -0.46509,-0.1912 -1.01802,-0.22221 v -0.12402 q 0.23254,-0.093 0.32556,-0.26355 0.0982,-0.1757 0.0982,-0.67696 v -1.95854 q 0,-0.45992 -0.031,-0.5581 -0.0258,-0.10335 -0.16537,-0.26355 -0.22221,-0.25838 -0.29972,-0.43925 -0.0775,-0.18604 -0.0775,-0.42375 0,-0.43408 0.26872,-0.75964 0.26872,-0.33073 0.94568,-0.66146 l 0.093,0.13436 q -0.55811,0.38757 -0.55811,0.75447 0,0.1292 0.062,0.24288 0.031,0.0568 0.37724,0.43925 0.23255,0.25322 0.35657,0.56328 0.0724,0.18603 0.0982,0.53226 l 1.50379,-1.21439 q 0.41341,0.27388 0.60978,0.56844 0.20154,0.29455 0.25321,0.67696 z m -2.36678,0.22738 v 2.64583 l 1.30225,0.5426 v -2.81636 q 0,-0.44442 -0.093,-0.62529 -0.093,-0.18087 -0.42374,-0.39274 z m 2.36678,0.0362 v 2.58382 l 1.31259,0.55294 v -2.87321 q 0,-0.38241 -0.0775,-0.52193 -0.0724,-0.1447 -0.42891,-0.41858 z"
         style="font-style:normal;font-variant:normal;font-weight:normal;font-stretch:normal;font-family:'Old English Text MT';-inkscape-font-specification:'Old English Text MT';fill:#ff0000;fill-opacity:1;stroke:#000000;stroke-width:0.26499999;stroke-miterlimit:4;stroke-dasharray:none;stroke-opacity:1"
         id="path833" />
      <path
         d="m 143.69135,194.71749 v 3.8654 q -0.77515,0.31523 -1.12138,0.51677 -0.26355,0.14986 -0.50643,0.37207 -0.74931,-0.45476 -1.24023,-0.63046 -0.37207,-0.13436 -0.84233,-0.15503 l -0.0517,-0.10335 q 0.19637,-0.16536 0.24804,-0.29972 0.0724,-0.1757 0.0724,-0.59428 v -2.83704 q 0.94568,-0.31522 1.61747,-0.88883 0.73381,0.48576 1.82418,0.75447 z m -2.39779,3.36414 1.34876,0.55294 v -3.28662 q -0.63562,-0.29456 -0.89917,-0.38758 -0.18604,-0.0672 -0.44959,-0.11369 z"
         style="font-style:normal;font-variant:normal;font-weight:normal;font-stretch:normal;font-family:'Old English Text MT';-inkscape-font-specification:'Old English Text MT';fill:#ff0000;fill-opacity:1;stroke:#000000;stroke-width:0.26499999;stroke-miterlimit:4;stroke-dasharray:none;stroke-opacity:1"
         id="path835" />
      <path
         d="m 146.93663,192.06649 v 0.13436 q -0.40824,0.21188 -0.57878,0.52193 -0.16536,0.30489 -0.16536,0.93018 v 4.59403 l 0.58911,0.43925 0.22738,-0.18603 0.12919,0.18603 -1.03353,0.78549 q -0.47026,-0.40825 -0.7028,-0.54261 -0.23255,-0.13436 -0.61495,-0.24288 v -0.11368 q 0.14469,-0.0879 0.22221,-0.22221 0.0827,-0.13436 0.11369,-0.31523 0.0103,-0.062 0.0155,-0.62012 v -3.68969 q 0,-0.47026 -0.0362,-0.65113 -0.0362,-0.18603 -0.1447,-0.3514 -0.10852,-0.17053 -0.3669,-0.37723 l 0.0827,-0.10336 q 0.47026,0.13436 0.84233,0.54777 0.38757,-0.40824 0.69763,-0.5581 0.31523,-0.14986 0.72347,-0.16537 z"
         style="font-style:normal;font-variant:normal;font-weight:normal;font-stretch:normal;font-family:'Old English Text MT';-inkscape-font-specification:'Old English Text MT';fill:#ff0000;fill-opacity:1;stroke:#000000;stroke-width:0.26499999;stroke-miterlimit:4;stroke-dasharray:none;stroke-opacity:1"
         id="path837" />
      <path
         d="m 150.13023,192.31454 -0.16019,0.863 -0.94568,-0.22221 v 1.2454 h 0.80098 v 0.57878 h -0.80098 v 3.46748 l 0.58394,0.43925 0.40308,-0.32556 0.11885,0.1447 -1.19889,0.96635 q -0.63562,-0.57878 -1.30741,-0.78549 l -0.031,-0.12402 q 0.18603,-0.11886 0.25838,-0.24805 0.12403,-0.21187 0.12403,-0.51159 v -3.02307 h -0.48576 v -0.57878 h 0.48576 v -1.2454 q 0.77514,-0.5271 1.16788,-0.88884 z"
         style="font-style:normal;font-variant:normal;font-weight:normal;font-stretch:normal;font-family:'Old English Text MT';-inkscape-font-specification:'Old English Text MT';fill:#ff0000;fill-opacity:1;stroke:#000000;stroke-width:0.26499999;stroke-miterlimit:4;stroke-dasharray:none;stroke-opacity:1"
         id="path839" />
    </g>
  </g>
</svg>
